<?xml version="1.0" encoding="UTF-8" standalone="no"?>
<svg width="19px" height="40px" viewBox="0 0 19 40" version="1.1" xmlns="http://www.w3.org/2000/svg" xmlns:xlink="http://www.w3.org/1999/xlink">
    <!-- Generator: Sketch 42 (36781) - http://www.bohemiancoding.com/sketch -->
    <title>icon2b</title>
    <desc>Created with Sketch.</desc>
    <defs>
        <polygon id="path-1" points="18.6436479 0.509829505 0.820330634 0.509829505 0.820330634 22.2928993 18.6436479 22.2928993 18.6436479 0.509829505"></polygon>
    </defs>
    <g id="Page-1" stroke="none" stroke-width="1" fill="none" fill-rule="evenodd">
        <g id="icon2b" transform="translate(-1.000000, -1.000000)">
            <g id="Page-1" stroke-width="1">
                <g id="Group-11" transform="translate(0.732553, 0.640797)">
                    <mask id="mask-2" fill="white">
                        <use xlink:href="#path-1"></use>
                    </mask>
                    <g id="Clip-10"></g>
                    <path d="M13.6926625,10.411455 L13.6926625,7.44109397 C13.6926625,5.25906972 11.9134381,3.48099617 9.73256468,3.48099617 C7.55054044,3.48099617 5.77131603,5.25906972 5.77131603,7.44109397 L5.77131603,10.411455 L13.6926625,10.411455 Z M18.6436479,20.8071433 C18.6436479,21.6277041 17.9784527,22.2928993 17.1590428,22.2928993 L2.30493574,22.2928993 C1.48667665,22.2928993 0.820330634,21.6277041 0.820330634,20.8071433 L0.820330634,11.897211 C0.820330634,11.0766502 1.48667665,10.411455 2.30493574,10.411455 L2.80095496,10.411455 L2.80095496,7.44109397 C2.80095496,3.63521096 5.92668168,0.509484248 9.73256468,0.509484248 C13.5372968,0.509484248 16.6630235,3.63521096 16.6630235,7.44109397 L16.6630235,10.411455 L17.1590428,10.411455 C17.9784527,10.411455 18.6436479,11.0766502 18.6436479,11.897211 L18.6436479,20.8071433 Z" id="Fill-9" fill="#0B71B9" mask="url(#mask-2)"></path>
                </g>
            </g>
            <path d="M11.821,30.248 L12.323,30.751 C12.484,30.911 12.578,31.133 12.578,31.36 C12.578,31.588 12.484,31.81 12.323,31.963 L10.361,33.933 L15.076,33.933 C15.558,33.933 15.86,34.335 15.86,34.79 L15.86,35.648 C15.86,36.103 15.558,36.505 15.076,36.505 L10.361,36.505 L12.323,38.475 C12.484,38.628 12.578,38.85 12.578,39.078 C12.578,39.305 12.484,39.527 12.323,39.68 L11.821,40.183 C11.66,40.343 11.446,40.436 11.218,40.436 C10.99,40.436 10.769,40.343 10.608,40.183 L6.248,35.822 C6.087,35.668 6,35.447 6,35.219 C6,34.992 6.087,34.77 6.248,34.61 L10.608,30.248 C10.769,30.095 10.99,30.001 11.218,30.001 C11.446,30.001 11.66,30.095 11.821,30.248" id="Page-1" fill="#0B71B9" transform="translate(10.929995, 35.218000) rotate(-270.000000) translate(-10.929995, -35.218000) "></path>
        </g>
    </g>
</svg>