<?xml version="1.0" encoding="UTF-8" standalone="no"?>
<svg width="26px" height="20px" viewBox="0 0 26 20" version="1.1" xmlns="http://www.w3.org/2000/svg" xmlns:xlink="http://www.w3.org/1999/xlink">
    <!-- Generator: Sketch 42 (36781) - http://www.bohemiancoding.com/sketch -->
    <title>icon5a</title>
    <desc>Created with Sketch.</desc>
    <defs></defs>
    <g id="Page-1" stroke="none" stroke-width="1" fill="none" fill-rule="evenodd">
        <g id="icon5a" fill="#DCE3ED">
            <path d="M21.5179594,18.9437294 C21.5179594,19.4857829 21.0691253,19.9334661 20.5282227,19.9334661 L14.5875005,19.9334661 L14.5875005,13.992744 L10.6262519,13.992744 L10.6262519,19.9334661 L4.68552976,19.9334661 C4.14347627,19.9334661 3.69579302,19.4857829 3.69579302,18.9437294 L3.69579302,11.5184021 C3.69579302,11.487329 3.71075416,11.455105 3.71075416,11.4251828 L12.6068762,4.09192405 L21.5018474,11.4251828 C21.5179594,11.455105 21.5179594,11.487329 21.5179594,11.5184021 L21.5179594,18.9437294 Z M24.0084132,11.5943587 C23.9313058,11.6875781 23.8070133,11.7497243 23.6838717,11.7658363 L23.6378374,11.7658363 C23.5135449,11.7658363 23.4053643,11.7336123 23.3132958,11.6565049 L12.6068762,2.73046061 L1.90045662,11.6565049 C1.79227609,11.7336123 1.66913443,11.7807975 1.52988077,11.7658363 C1.40558825,11.7497243 1.28244659,11.6875781 1.20533919,11.5943587 L0.245524729,10.4504072 C0.0751979414,10.2490072 0.106271072,9.92446566 0.306520132,9.75413887 L11.4307007,0.487440966 C12.0809347,-0.0546125256 13.1328177,-0.0546125256 13.7819009,0.487440966 L17.5578616,3.64308995 L17.5578616,0.625543766 C17.5578616,0.348187309 17.7742227,0.130675398 18.0515791,0.130675398 L21.023091,0.130675398 C21.3015984,0.130675398 21.5179594,0.348187309 21.5179594,0.625543766 L21.5179594,6.9379926 L24.9060814,9.75413887 C25.1074814,9.92446566 25.1385545,10.2490072 24.9682277,10.4504072 L24.0084132,11.5943587 Z" id="Fill-10"></path>
        </g>
    </g>
</svg>