<?xml version="1.0" encoding="UTF-8" standalone="no"?>
<svg width="24px" height="23px" viewBox="0 0 24 23" version="1.1" xmlns="http://www.w3.org/2000/svg" xmlns:xlink="http://www.w3.org/1999/xlink">
    <!-- Generator: Sketch 42 (36781) - http://www.bohemiancoding.com/sketch -->
    <title>icon3a</title>
    <desc>Created with Sketch.</desc>
    <defs></defs>
    <g id="Page-1" stroke="none" stroke-width="1" fill="none" fill-rule="evenodd">
        <g id="icon3a" fill="#DCE3ED">
            <path d="M11.8891682,6.29871236 C9.43784347,6.29871236 6.80928684,8.73507593 6.80928684,12.6779109 C6.80928684,14.8783488 7.90144982,16.1339335 9.8222296,16.1339335 C12.7902889,16.1339335 14.8583784,12.7377554 14.8583784,9.69489039 C14.8583784,7.56925812 13.7501034,6.29871236 11.8891682,6.29871236 M17.1025489,17.8912916 C16.9103558,17.8912916 16.8378519,17.9062527 16.6306977,17.9062527 C15.7146157,17.9062527 14.9907269,17.6404048 14.5338368,17.1236702 C14.2530278,16.7991286 14.0896061,16.3859711 14.0458736,15.8980078 C13.1297917,17.0500154 11.5347043,18.1721006 9.54142057,18.1721006 C6.36620702,18.1721006 4.5501552,16.2075883 4.5501552,12.781488 C4.5501552,8.07103163 7.81398471,4.24558406 11.8017031,4.24558406 C13.5291389,4.24558406 14.9170721,4.98328319 15.6547712,6.23886781 L15.6858443,5.95805878 L15.8469643,5.1317437 C15.8619254,5.01320546 15.9655025,4.8658958 16.0690796,4.8658958 L17.8114766,4.8658958 C17.8862823,4.8658958 17.9587863,4.96947291 18.0036697,5.0281666 C18.0485531,5.07305001 18.0623634,5.19043739 18.0485531,5.26524307 L16.2762338,14.3316919 C16.2175401,14.6136518 16.2014281,14.8346163 16.2014281,15.0417705 C16.2014281,15.8381633 16.4385046,16.0015849 17.0438552,16.0015849 C18.0485531,15.9716627 21.2974215,15.5585051 21.2974215,11.4821708 C21.2974215,5.7370943 17.5905121,2.03018497 11.8454356,2.03018497 C6.63205491,2.03018497 2.3934498,6.26879009 2.3934498,11.4821708 C2.3934498,16.6955515 6.63205491,20.9341566 11.8454356,20.9341566 C14.0171022,20.9341566 16.1427344,20.1814964 17.8264377,18.8073735 C18.0335919,18.6301416 18.3293621,18.658913 18.490482,18.8660672 L19.0969835,19.589956 C19.1706383,19.6935331 19.2143709,19.8109205 19.2005606,19.9444199 C19.1855995,20.0629581 19.1257549,20.1814964 19.0221778,20.2701123 C17.0139329,21.9077814 14.4590311,22.8238633 11.8454356,22.8238633 C5.59858562,22.8238633 0.502592288,17.7290208 0.502592288,11.4821708 C0.502592288,5.2353208 5.59858562,0.139327463 11.8454356,0.139327463 C18.6251323,0.139327463 23.1871281,4.70247416 23.1871281,11.4821708 C23.1871281,16.0752398 19.9094883,17.8026756 17.1025489,17.8912916" id="Fill-3"></path>
        </g>
    </g>
</svg>