<?xml version="1.0" encoding="UTF-8" standalone="no"?>
<svg width="28px" height="38px" viewBox="0 0 28 38" version="1.1" xmlns="http://www.w3.org/2000/svg" xmlns:xlink="http://www.w3.org/1999/xlink">
    <!-- Generator: Sketch 42 (36781) - http://www.bohemiancoding.com/sketch -->
    <title>icon7b</title>
    <desc>Created with Sketch.</desc>
    <defs>
        <polygon id="path-1" points="27.9508559 0.188855579 27.9508559 23.9517441 0.227294192 23.9517441 0.227294192 0.188855579 27.9508559 0.188855579"></polygon>
    </defs>
    <g id="Page-1" stroke="none" stroke-width="1" fill="none" fill-rule="evenodd">
        <g id="icon7b" transform="translate(0.000000, -1.000000)">
            <g id="Page-1" stroke-width="1">
                <g id="Group-28" transform="translate(0.037611, 0.942510)">
                    <mask id="mask-2" fill="white">
                        <use xlink:href="#path-1"></use>
                    </mask>
                    <g id="Clip-27"></g>
                    <path d="M20.0300849,12.0702998 C18.9321676,12.0702998 18.0494606,11.1875928 18.0494606,10.0896755 C18.0494606,8.99175824 18.9321676,8.11020204 20.0300849,8.11020204 C21.1280022,8.11020204 22.0107092,8.99175824 22.0107092,10.0896755 C22.0107092,11.1875928 21.1280022,12.0702998 20.0300849,12.0702998 M14.0893628,12.0702998 C12.9914455,12.0702998 12.1087384,11.1875928 12.1087384,10.0896755 C12.1087384,8.99175824 12.9914455,8.11020204 14.0893628,8.11020204 C15.18728,8.11020204 16.0699871,8.99175824 16.0699871,10.0896755 C16.0699871,11.1875928 15.18728,12.0702998 14.0893628,12.0702998 M8.14864065,12.0702998 C7.05072339,12.0702998 6.16801632,11.1875928 6.16801632,10.0896755 C6.16801632,8.99175824 7.05072339,8.11020204 8.14864065,8.11020204 C9.24655791,8.11020204 10.1281141,8.99175824 10.1281141,10.0896755 C10.1281141,11.1875928 9.24655791,12.0702998 8.14864065,12.0702998 M2.20791852,10.0896755 C2.20791852,12.3948414 3.75466988,14.5918268 6.4315625,16.1086559 L7.7780648,16.8820316 L7.35915297,18.3677875 C7.06453367,19.4657048 6.67784583,20.3161879 6.27619685,21.0274173 C7.8390602,20.3783341 9.26266991,19.4967779 10.530914,18.3815978 L11.1961091,17.7946609 L12.0776653,17.8878803 C12.7428605,17.9649877 13.4241676,18.011022 14.0893628,18.011022 C20.5249533,18.011022 25.970807,14.3915777 25.970807,10.0896755 C25.970807,5.78892413 20.5249533,2.16832905 14.0893628,2.16832905 C7.65377228,2.16832905 2.20791852,5.78892413 2.20791852,10.0896755 M14.0893628,19.9916463 C13.3309482,19.9916463 12.5736845,19.945612 11.8463431,19.8673538 C9.81968453,21.6626902 7.40518724,22.9309342 4.72944548,23.6110905 C4.17243086,23.7664562 3.5682311,23.8746367 2.96633307,23.9517441 L2.88807481,23.9517441 C2.57849437,23.9517441 2.30113791,23.7043099 2.22287966,23.3636563 L2.22287966,23.3486952 C2.14577226,22.9620074 2.40816758,22.7306852 2.64064063,22.4521779 C3.61541623,21.3519589 4.72944548,20.4243684 5.4567869,17.841846 C2.26891392,16.0303976 0.227294192,13.2303634 0.227294192,10.0896755 C0.227294192,4.62886061 6.4315625,0.188855579 14.0893628,0.188855579 C21.7471631,0.188855579 27.9514314,4.62886061 27.9514314,10.0896755 C27.9514314,15.5666024 21.7471631,19.9916463 14.0893628,19.9916463" id="Fill-26" fill="#0B71B9" mask="url(#mask-2)"></path>
                </g>
            </g>
            <path d="M14.821,28.248 L15.323,28.751 C15.484,28.911 15.578,29.133 15.578,29.36 C15.578,29.588 15.484,29.81 15.323,29.963 L13.361,31.933 L18.076,31.933 C18.558,31.933 18.86,32.335 18.86,32.79 L18.86,33.648 C18.86,34.103 18.558,34.505 18.076,34.505 L13.361,34.505 L15.323,36.475 C15.484,36.628 15.578,36.85 15.578,37.078 C15.578,37.305 15.484,37.527 15.323,37.68 L14.821,38.183 C14.66,38.343 14.446,38.436 14.218,38.436 C13.99,38.436 13.769,38.343 13.608,38.183 L9.248,33.822 C9.087,33.668 9,33.447 9,33.219 C9,32.992 9.087,32.77 9.248,32.61 L13.608,28.248 C13.769,28.095 13.99,28.001 14.218,28.001 C14.446,28.001 14.66,28.095 14.821,28.248" id="Page-1" fill="#0B71B9" transform="translate(13.929995, 33.218000) rotate(-270.000000) translate(-13.929995, -33.218000) "></path>
        </g>
    </g>
</svg>