<?xml version="1.0" encoding="UTF-8" standalone="no"?>
<svg width="25px" height="25px" viewBox="0 0 25 25" version="1.1" xmlns="http://www.w3.org/2000/svg" xmlns:xlink="http://www.w3.org/1999/xlink">
    <!-- Generator: Sketch 42 (36781) - http://www.bohemiancoding.com/sketch -->
    <title>icon1a</title>
    <desc>Created with Sketch.</desc>
    <defs></defs>
    <g id="Page-1" stroke="none" stroke-width="1" fill="none" fill-rule="evenodd">
        <g id="icon1a" fill="#DCE3ED">
            <path d="M12.083995,3.67107641 C9.22526706,3.67107641 6.90514002,5.99120346 6.90514002,8.84993142 C6.90514002,11.7086594 9.22526706,14.0287864 12.083995,14.0287864 C14.942723,14.0287864 17.26285,11.7086594 17.26285,8.84993142 C17.26285,5.99120346 14.942723,3.67107641 12.083995,3.67107641 M16.8715588,13.2059239 C15.6850255,14.5006377 13.9725508,15.3235002 12.083995,15.3235002 C10.1954392,15.3235002 8.48296451,14.5006377 7.29643129,13.2059239 C5.0039248,13.5166552 3.97851151,15.7550714 3.62750022,18.2765984 C5.50224574,20.9201162 8.59114504,22.6602115 12.083995,22.6602115 C15.576845,22.6602115 18.6657443,20.9201162 20.5404898,18.2765984 C20.1894786,15.7550714 19.1640653,13.5166552 16.8715588,13.2059239 M12.083995,24.3864965 C5.40787549,24.3864965 0,18.9648107 0,12.3025014 C0,5.62638189 5.40787549,0.218506402 12.083995,0.218506402 C18.7601146,0.218506402 24.1679901,5.62638189 24.1679901,12.3025014 C24.1679901,18.9510004 18.772774,24.3864965 12.083995,24.3864965" id="Fill-1"></path>
        </g>
    </g>
</svg>