<?xml version="1.0" encoding="UTF-8" standalone="no"?>
<svg width="280px" height="73px" viewBox="0 0 280 73" version="1.1" xmlns="http://www.w3.org/2000/svg" xmlns:xlink="http://www.w3.org/1999/xlink">
    <!-- Generator: Sketch 42 (36781) - http://www.bohemiancoding.com/sketch -->
    <title>weheart</title>
    <desc>Created with Sketch.</desc>
    <defs>
        <polygon id="path-1" points="0.495267327 15.3371254 13.8340792 15.3371254 13.8340792 0.00906284684 0.495267327 0.00906284684"></polygon>
        <polygon id="path-3" points="0.87229703 22.3085461 16.4303168 22.3085461 16.4303168 0.0981576027 0.87229703 0.0981576027 0.87229703 22.3085461"></polygon>
        <polygon id="path-5" points="0.0282772277 15.3371254 13.3670891 15.3371254 13.3670891 0.00906284684 0.0282772277 0.00906284684 0.0282772277 15.3371254"></polygon>
        <polygon id="path-7" points="0.59160396 19.8113208 11.0167525 19.8113208 11.0167525 0.208383047 0.59160396 0.208383047 0.59160396 19.8113208"></polygon>
        <polygon id="path-9" points="0.286505279 0.458719478 54.6796242 0.458719478 54.6796242 46.4349598 0.286505279 46.4349598 0.286505279 0.458719478"></polygon>
    </defs>
    <g id="Page-1" stroke="none" stroke-width="1" fill="none" fill-rule="evenodd">
        <g id="guides" transform="translate(-19.000000, -105.000000)">
            <g id="weheart" transform="translate(19.000000, 104.000000)">
                <g id="Page-1">
                    <polygon id="Fill-1" fill="#0B71B9" points="44.5990099 4.03840455 44.5990099 8.14457131 49.3562376 8.91282186 43.2627723 32.9363374 42.3271287 38.5720339 41.1780198 32.9363374 34.5508911 8.91282186 39.6283168 8.14457131 39.6283168 4.03840455 21.8039604 4.03840455 21.8039604 8.14457131 25.2249505 8.91282186 26.7760396 13.5697309 21.189901 32.9363374 20.2556436 38.1760572 19.2673267 32.9363374 12.6665347 8.93791898 17.1562376 8.14457131 17.1562376 4.03840455 0 4.03840455 0 8.14457131 3.20752475 8.93791898 14.3770297 44.9480952 22.3126733 44.9480952 29.0728713 20.8715968 36.1546535 44.9480952 44.2524752 44.9480952 54.5930693 8.93791898 58.040396 8.14457131 58.040396 4.03840455"></polygon>
                    <polygon id="Fill-2" fill="#0B71B9" points="63.252 40.6616475 63.252 8.60844964 59.0034851 7.82765053 59.0034851 4.03798627 88.5836832 4.03798627 89.3308119 13.5260898 84.9769505 13.5260898 83.1056634 7.93501041 72.3104158 7.93501041 72.3104158 21.8862174 79.0983366 21.8862174 80.0866535 17.3701311 83.9872475 17.3701311 83.9872475 31.050847 80.0866535 31.050847 79.1510099 26.2405667 72.3104158 26.2405667 72.3104158 40.674196 84.3351683 40.674196 87.6757624 33.4894499 92.2444752 34.7875284 90.8555644 44.9476769 59.082495 44.9476769 59.082495 41.346241"></polygon>
                    <g id="Group-57" transform="translate(3.870316, 0.935425)">
                        <path d="M1.57540633,56.8239102 C2.45283207,55.262312 3.65738653,54.0688048 5.19045583,53.2475714 C6.72352514,52.4249438 8.45619841,52.01363 10.3898618,52.01363 C11.1841192,52.01363 11.9575845,52.0582471 12.7158024,52.1474813 C13.4726341,52.2367155 14.3237232,52.362201 15.2690697,52.523938 C16.0078816,52.6410579 16.4763964,52.7079835 16.6732281,52.7261092 L16.351644,58.5834968 L13.49204,58.5834968 L12.5550103,54.6418556 C12.4039212,54.4410787 12.122535,54.2779474 11.712238,54.1524618 C11.3033271,54.025582 10.7502578,53.9628392 10.0558024,53.9628392 C9.11184197,53.9628392 8.28986177,54.2626103 7.58986177,54.8635468 C6.88986177,55.4630889 6.34788158,56.3624022 5.96530732,57.558698 C5.58273306,58.756388 5.39144593,60.2231749 5.39144593,61.9646358 C5.39144593,63.6001311 5.56748554,65.0641294 5.91956474,66.3566308 C6.27164395,67.6491322 6.81223801,68.6697482 7.5441192,69.4170845 C8.27322811,70.1658151 9.18253504,70.5394832 10.2692677,70.5394832 C10.9637232,70.5394832 11.5057034,70.460009 11.8938222,70.2996663 C12.281941,70.1393237 12.5855053,69.9315753 12.8086737,69.6806042 L14.092238,66.794436 L16.6857034,67.0356472 L16.1769905,71.4624993 C15.8928321,71.4889907 15.6239212,71.5336078 15.3688717,71.5949563 C15.1152083,71.6563048 14.7866935,71.7427504 14.3860994,71.8570817 C13.6999608,72.0606472 13.0567925,72.2182013 12.4552083,72.3311383 C11.8536242,72.4454696 11.1078816,72.5026353 10.2152083,72.5026353 C8.05144593,72.5026353 6.22451524,72.0955043 4.73580237,71.2826367 C3.24847564,70.4683747 2.12847564,69.3041475 1.38134692,67.7899549 C0.632832071,66.2771566 0.258574646,64.4645873 0.258574646,62.3564297 C0.258574646,60.2301464 0.696594448,58.3855085 1.57540633,56.8239102" id="Fill-3" fill="#0B71B9"></path>
                        <path d="M27.2175845,64.5699951 C25.7302578,64.5699951 24.6532281,64.8349091 23.9906539,65.3633428 C23.3253073,65.8917765 22.9940202,66.5652157 22.9940202,67.3808719 C22.9940202,68.2048939 23.1839212,68.8392931 23.562337,69.2826755 C23.9407529,69.7260579 24.4508519,69.947749 25.0926341,69.947749 C25.4045152,69.947749 25.7676836,69.8668805 26.182139,69.7037493 C26.5965944,69.5392238 26.941743,69.3356583 27.2175845,69.0874757 L27.2175845,64.5699951 Z M27.2175845,62.3112549 C27.2175845,61.7646955 27.1441192,61.3324674 26.9971885,61.011782 C26.8502578,60.6938853 26.5813469,60.4526741 26.1890697,60.2937257 C25.7967925,60.1319888 25.2354063,60.0539089 24.5049113,60.0539089 C23.5956043,60.0539089 22.7736242,60.1361716 22.0389707,60.3020914 C21.3029311,60.4707998 20.5655053,60.6869138 19.8266935,60.9518278 L19.8128321,60.9518278 L18.9437232,59.3260925 C19.2375845,59.0765157 19.7268915,58.7823217 20.4074855,58.4462993 C21.0894657,58.1102768 21.8864954,57.8146885 22.7999608,57.5595345 C23.7148123,57.3029863 24.6476836,57.1747121 25.6013469,57.1747121 C27.0262974,57.1747121 28.1476836,57.3531805 28.9627331,57.7073287 C29.7777826,58.0614768 30.3599608,58.6219791 30.7078816,59.3902296 C31.0544162,60.1598744 31.2290697,61.1958276 31.2290697,62.5036661 L31.2290697,70.3506971 L32.6845152,70.3506971 L32.6845152,72.0586952 C32.2298618,72.1576894 31.6601588,72.2566835 30.9740202,72.3556777 C30.2878816,72.4532776 29.6862974,72.5020776 29.1692677,72.5020776 C28.6965944,72.5020776 28.3348123,72.460249 28.0797628,72.3751977 C27.8260994,72.2901464 27.6459014,72.1381694 27.5377826,71.9192668 C27.4310499,71.6975756 27.3783766,71.3782845 27.3783766,70.9572107 L27.3783766,70.5403198 C26.941743,71.0575992 26.3498618,71.5135301 25.6013469,71.9109011 C24.8528321,72.3054835 23.99204,72.5020776 23.021743,72.5020776 C22.1651093,72.5020776 21.3833271,72.3250035 20.6750103,71.9708553 C19.9680796,71.6139186 19.402535,71.0896677 18.9853073,70.3967085 C18.5653073,69.7037493 18.3560004,68.8671788 18.3560004,67.8856028 C18.3560004,66.1929419 19.1405548,64.9185662 20.7096638,64.0582929 C22.2773865,63.1994138 24.4466935,62.76858 27.2175845,62.76858 L27.2175845,62.3112549 Z" id="Fill-5" fill="#0B71B9"></path>
                        <polygon id="Fill-7" fill="#0B71B9" points="35.7184954 70.4195748 35.7184954 52.5643722 33.754337 52.2144069 33.754337 50.5607859 39.1547331 49.9026838 39.2198816 49.9026838 40.0224558 50.4938603 40.0224558 70.4195748 41.8272083 70.6872773 41.8272083 72.4886924 33.9276043 72.4886924 33.9276043 70.6872773"></polygon>
                        <path d="M44.976238,51.152799 C45.1772281,50.7498509 45.4697034,50.4277712 45.8592083,50.1921372 C46.245941,49.9537146 46.7075251,49.8352005 47.2411885,49.8352005 L47.2550499,49.8352005 C47.7637628,49.8352005 48.196238,49.9383775 48.5580202,50.1433373 C48.9198024,50.3510856 49.195644,50.622971 49.3869311,50.9645706 C49.5782182,51.3047759 49.6752479,51.6812327 49.6752479,52.0939408 C49.6752479,52.8649799 49.4423766,53.4951963 48.9794063,53.9818015 C48.516436,54.4711952 47.8510895,54.7151949 46.9875251,54.7151949 L46.9736638,54.7151949 C46.5287133,54.7151949 46.1322776,54.6162007 45.7843568,54.4196067 C45.436436,54.2230126 45.166139,53.9567044 44.9693073,53.6206819 C44.7738618,53.2832651 44.6754459,52.9054141 44.6754459,52.482946 C44.6754459,51.9991294 44.7752479,51.5557471 44.976238,51.152799 L44.976238,51.152799 Z M45.3297034,70.4190171 L45.3297034,60.0929488 L43.5249509,59.5422066 L43.5249509,57.4856375 L48.7922776,56.8135925 L48.8588123,56.8135925 L49.686337,57.4033747 L49.686337,70.4315656 L51.3982182,70.6881139 L51.3982182,72.489529 L43.5388123,72.489529 L43.5388123,70.6881139 L45.3297034,70.4190171 Z" id="Fill-9" fill="#0B71B9"></path>
                        <path d="M55.2070499,70.4059108 L55.2070499,59.4747232 L53.0155647,59.4747232 L53.0155647,57.8211022 L55.2070499,57.2159829 L55.2070499,56.1005556 C55.2070499,54.9600312 55.538337,53.9143181 56.2036836,52.9620221 C56.8662578,52.0125146 57.7450697,51.2623897 58.8359608,50.7130418 C59.9268519,50.1622995 61.0925944,49.8890198 62.3318024,49.8890198 C62.7767529,49.8890198 63.1246737,49.914117 63.3741786,49.9629169 C63.6236836,50.0117168 63.8731885,50.0772482 64.1226935,50.1581167 L64.1226935,54.0760551 C63.997941,53.9491752 63.7830895,53.8139297 63.4809113,53.6661355 C63.1773469,53.5197357 62.8266539,53.398433 62.4246737,53.3008331 C62.0240796,53.2046275 61.6318024,53.1558276 61.247842,53.1558276 C60.7945746,53.1558276 60.4438816,53.2060218 60.1999212,53.3064102 C59.9545746,53.408193 59.7813073,53.5838728 59.6787331,53.8334496 C59.5747727,54.0844208 59.5248717,54.4399632 59.5248717,54.900077 L59.5248717,57.1894915 L62.9070499,57.1894915 L62.9070499,59.4747232 L59.5248717,59.4747232 L59.5248717,70.4324022 L62.2652677,70.701499 L62.2652677,72.4889713 L53.1361588,72.4889713 L53.1361588,70.701499 L55.2070499,70.4059108 Z" id="Fill-11" fill="#0B71B9"></path>
                        <g id="Group-15" transform="translate(64.050476, 57.165649)" fill="#0B71B9">
                            <path d="M9.87623762,3.42310696 C9.44376238,2.43037666 8.73821782,1.93261723 7.75821782,1.93261723 C6.83089109,1.93261723 6.14059406,2.38157672 5.68732673,3.27810142 C5.23128713,4.17462611 5.0039604,5.56612167 5.0039604,7.4525881 C5.0039604,9.42271157 5.22851485,10.9090185 5.68039604,11.9115087 C6.12950495,12.913999 6.84336634,13.414547 7.82475248,13.414547 C8.74237624,13.414547 9.42158416,12.9697704 9.86237624,12.0760343 C10.3045545,11.1836924 10.5249505,9.7894083 10.5249505,7.89597045 C10.5249505,5.90772128 10.3087129,4.41723155 9.87623762,3.42310696 M11.8805941,0.917578385 C12.9728713,1.5226977 13.8059406,2.39412528 14.3811881,3.53046684 C14.9550495,4.66680841 15.2433663,6.01508116 15.2433663,7.57667938 C15.2433663,9.28467744 14.8954455,10.7207901 14.199604,11.8878059 C13.5051485,13.0548217 12.5778218,13.9220665 11.420396,14.4881458 C10.2615842,15.0542252 8.98217822,15.3372648 7.5849505,15.3372648 C6.06851485,15.3372648 4.76554455,15.0347052 3.67326733,14.4309802 C2.58237624,13.8258608 1.75069307,12.9544333 1.17544554,11.8180917 C0.60019802,10.6803559 0.313267327,9.3320831 0.313267327,7.77048488 C0.313267327,6.10570963 0.662574257,4.69051124 1.36118812,3.52349542 C2.06118812,2.35647961 2.99267327,1.47947489 4.15564356,0.892481271 C5.31861386,0.304093368 6.59108911,0.00989941731 7.97168317,0.00989941731 C9.48673267,0.00989941731 10.789703,0.313853357 11.8805941,0.917578385" id="Fill-13"></path>
                        </g>
                        <path d="M83.0624756,70.5284684 L83.0624756,60.4840455 L81.446238,59.9458518 L81.446238,57.8209628 L85.9234657,57.2019007 L85.9900004,57.2019007 L86.7800994,57.7944714 L86.7800994,58.5738762 L86.7121786,60.6987653 L86.7800994,60.6987653 C86.9034657,60.2944229 87.1876242,59.8147891 87.6284162,59.259864 C88.0678222,58.704939 88.6333667,58.2183338 89.3195053,57.8014428 C90.0042578,57.3845519 90.7527727,57.1754093 91.5636638,57.1754093 C91.7868321,57.1754093 91.9892083,57.1963235 92.1721786,57.2381521 C92.3551489,57.2799806 92.5006935,57.3315691 92.6074261,57.3957062 L92.6074261,62.0972322 C92.2941588,61.840684 91.9767331,61.6524556 91.6509905,61.5339415 C91.3252479,61.4168216 90.9315845,61.3568674 90.4686142,61.3568674 C89.8088123,61.3568674 89.2030697,61.4391301 88.6500004,61.6064442 C88.0983172,61.7709698 87.6783172,61.9773238 87.3941588,62.2255064 L87.3941588,70.5159198 L90.5476242,70.7864109 L90.5476242,72.4888319 L81.2993073,72.4888319 L81.2993073,70.7724681 L83.0624756,70.5284684 Z" id="Fill-16" fill="#0B71B9"></path>
                        <path d="M96.1347331,70.5093667 L96.1347331,60.4816752 L94.4907727,59.960213 L94.4907727,57.7405126 L99.3159212,57.1214505 L99.383842,57.1214505 L100.118495,57.7126269 L100.118495,58.694203 L100.090773,59.3132651 C100.724238,58.7220887 101.533743,58.2187521 102.516515,57.8018611 C103.50206,57.3849702 104.50701,57.1758276 105.531367,57.1758276 C106.636119,57.1758276 107.508,57.3710273 108.144238,57.7628212 C108.781862,58.1560093 109.240674,58.7820429 109.520674,59.6451047 C109.80206,60.5067723 109.94206,61.677971 109.94206,63.1573065 L109.94206,70.4828753 L111.545822,70.717115 L111.545822,72.4892501 L104.114733,72.4892501 L104.114733,70.7436064 L105.518891,70.4968181 L105.518891,63.1879807 C105.518891,62.320736 105.460674,61.6445082 105.345624,61.1565087 C105.229189,60.6699036 105.018495,60.3143611 104.716317,60.0843042 C104.414139,59.8570359 103.976119,59.7427046 103.406416,59.7427046 C102.889387,59.7427046 102.375129,59.8598245 101.862258,60.09267 C101.350773,60.3241211 100.911367,60.5974008 100.546812,60.9097204 L100.546812,70.4968181 L102.096515,70.7436064 L102.096515,72.4892501 L94.5850301,72.4892501 L94.5850301,70.7436064 L96.1347331,70.5093667 Z" id="Fill-18" fill="#0B71B9"></path>
                        <path d="M114.626931,51.152799 C114.827921,50.7498509 115.120396,50.4277712 115.509901,50.1921372 C115.896634,49.9537146 116.358218,49.8352005 116.891882,49.8352005 L116.905743,49.8352005 C117.414456,49.8352005 117.846931,49.9383775 118.208713,50.1433373 C118.570495,50.3510856 118.846337,50.622971 119.037624,50.9645706 C119.228911,51.3047759 119.325941,51.6812327 119.325941,52.0939408 C119.325941,52.8649799 119.09307,53.4951963 118.630099,53.9818015 C118.167129,54.4711952 117.501783,54.7151949 116.638218,54.7151949 L116.624357,54.7151949 C116.179406,54.7151949 115.782971,54.6162007 115.43505,54.4196067 C115.087129,54.2230126 114.816832,53.9567044 114.62,53.6206819 C114.424555,53.2832651 114.326139,52.9054141 114.326139,52.482946 C114.326139,51.9991294 114.425941,51.5557471 114.626931,51.152799 L114.626931,51.152799 Z M114.980396,70.4190171 L114.980396,60.0929488 L113.175644,59.5422066 L113.175644,57.4856375 L118.442971,56.8135925 L118.509505,56.8135925 L119.33703,57.4033747 L119.33703,70.4315656 L121.048911,70.6881139 L121.048911,72.489529 L113.189505,72.489529 L113.189505,70.6881139 L114.980396,70.4190171 Z" id="Fill-20" fill="#0B71B9"></path>
                        <path d="M131.435248,64.5699951 C129.947921,64.5699951 128.870891,64.8349091 128.208317,65.3633428 C127.542971,65.8917765 127.211684,66.5652157 127.211684,67.3808719 C127.211684,68.2048939 127.401585,68.8392931 127.78,69.2826755 C128.158416,69.7260579 128.668515,69.947749 129.310297,69.947749 C129.622179,69.947749 129.985347,69.8668805 130.399802,69.7037493 C130.814258,69.5392238 131.159406,69.3356583 131.435248,69.0874757 L131.435248,64.5699951 Z M131.435248,62.3112549 C131.435248,61.7646955 131.361783,61.3324674 131.214852,61.011782 C131.067921,60.6938853 130.79901,60.4526741 130.406733,60.2937257 C130.014456,60.1319888 129.45307,60.0539089 128.722575,60.0539089 C127.813268,60.0539089 126.991288,60.1361716 126.256634,60.3020914 C125.520594,60.4707998 124.783169,60.6869138 124.044357,60.9518278 L124.030495,60.9518278 L123.161387,59.3260925 C123.455248,59.0765157 123.944555,58.7823217 124.625149,58.4462993 C125.307129,58.1102768 126.104159,57.8146885 127.017624,57.5595345 C127.932476,57.3029863 128.865347,57.1747121 129.81901,57.1747121 C131.243961,57.1747121 132.365347,57.3531805 133.180396,57.7073287 C133.995446,58.0614768 134.577624,58.6219791 134.925545,59.3902296 C135.27208,60.1598744 135.446733,61.1958276 135.446733,62.5036661 L135.446733,70.3506971 L136.902179,70.3506971 L136.902179,72.0586952 C136.447525,72.1576894 135.877822,72.2566835 135.191684,72.3556777 C134.505545,72.4532776 133.903961,72.5020776 133.386931,72.5020776 C132.914258,72.5020776 132.552476,72.460249 132.297426,72.3751977 C132.043763,72.2901464 131.863565,72.1381694 131.755446,71.9192668 C131.648713,71.6975756 131.59604,71.3782845 131.59604,70.9572107 L131.59604,70.5403198 C131.159406,71.0575992 130.567525,71.5135301 129.81901,71.9109011 C129.070495,72.3054835 128.209703,72.5020776 127.239406,72.5020776 C126.382773,72.5020776 125.60099,72.3250035 124.892674,71.9708553 C124.185743,71.6139186 123.620198,71.0896677 123.202971,70.3967085 C122.782971,69.7037493 122.573664,68.8671788 122.573664,67.8856028 C122.573664,66.1929419 123.358218,64.9185662 124.927327,64.0582929 C126.49505,63.1994138 128.664357,62.76858 131.435248,62.76858 L131.435248,62.3112549 Z" id="Fill-22" fill="#0B71B9"></path>
                        <path d="M157.04499,60.8460017 C157.589743,60.1195796 157.861426,59.0194895 157.861426,57.549914 C157.861426,56.2825097 157.589743,55.3357908 157.04499,54.7125458 C156.501624,54.0865122 155.60202,53.7741926 154.346179,53.7741926 C153.605981,53.7741926 153.027961,53.8285696 152.607961,53.9345352 L152.607961,61.8749834 C152.749347,61.9154176 153.12499,61.9349376 153.730733,61.9349376 L154.746773,61.9349376 C155.736476,61.9349376 156.501624,61.5724237 157.04499,60.8460017 L157.04499,60.8460017 Z M148.090535,70.3508366 L148.090535,54.4113804 L146.098654,54.0405008 L146.098654,52.0271546 L150.255684,52.0271546 L152.354297,52.0271546 L153.262218,52.0271546 L154.825783,52.0271546 C156.751129,52.0271546 158.284198,52.2139886 159.42499,52.5890511 C160.565783,52.9641135 161.390535,53.5427414 161.897862,54.3221462 C162.405189,55.1029453 162.660238,56.1333213 162.660238,57.4132741 C162.660238,58.1898904 162.514693,58.9553524 162.22499,59.7096601 C161.935288,60.4639678 161.497268,61.1360128 160.908159,61.7271892 C160.320436,62.3183657 159.598258,62.7464109 158.74301,63.0113249 C159.276674,63.2358047 159.765981,63.6011071 160.206773,64.1072322 C160.648951,64.6133574 161.025981,65.1599168 161.343406,65.7469104 C161.659446,66.3352983 162.008753,67.0435946 162.391327,67.8773765 C162.78499,68.7125527 163.095486,69.3232492 163.326971,69.7122544 C163.558456,70.1040483 163.799644,70.3299223 164.050535,70.3926651 L164.891921,70.6882533 L164.891921,72.4896684 L159.692515,72.4896684 C159.415288,72.4896684 159.139446,72.1954745 158.863604,71.6084809 C158.586377,71.020093 158.221822,70.0970769 157.767169,68.8394326 C157.427565,67.8801651 157.132317,67.0854231 156.878654,66.456601 C156.623604,65.8277789 156.346377,65.2630938 156.042812,64.7611515 C155.740634,64.2578149 155.423208,63.9203982 155.094693,63.7502955 L152.607961,63.7502955 L152.607961,70.3647794 L155.040634,70.6882533 L155.040634,72.4896684 L146.004396,72.4896684 L146.004396,70.6882533 L148.090535,70.3508366 Z" id="Fill-24" fill="#0B71B9"></path>
                        <g id="Group-28" transform="translate(165.238594, 57.165649)">
                            <mask id="mask-2" fill="white">
                                <use xlink:href="#path-1"></use>
                            </mask>
                            <g id="Clip-27"></g>
                            <path d="M9.57031683,5.89851901 L9.58417822,4.93367439 C9.58417822,3.97301262 9.42477228,3.22985918 9.10318812,2.70003122 C8.7829901,2.17020325 8.23823762,1.90668355 7.47170297,1.90668355 C6.96437624,1.90668355 6.53190099,2.01822628 6.17566337,2.23991745 C5.81942574,2.46160863 5.53388119,2.86595103 5.32041584,3.45433893 C5.10556436,4.04133255 4.9849703,4.85559448 4.9600198,5.89851901 L9.57031683,5.89851901 Z M1.4239802,3.60352733 C2.04219802,2.44348294 2.91407921,1.55671823 4.03685149,0.937656077 C5.15962376,0.319988208 6.46120792,0.00906284684 7.94021782,0.00906284684 C9.81982178,0.00906284684 11.2614059,0.451050916 12.2635842,1.33363277 C13.2657624,2.21482034 13.7897228,3.48222461 13.8340792,5.13026845 C13.8340792,6.27637001 13.7675446,7.14779759 13.6344752,7.74036834 L4.99883168,7.74036834 C5.10556436,9.38980647 5.50893069,10.6139879 6.20893069,11.4115185 C6.90893069,12.209049 7.83764356,12.6078142 8.99645545,12.6078142 C9.66318812,12.6078142 10.3604158,12.4920887 11.0881386,12.2592432 C11.8130891,12.0263978 12.4049703,11.7614838 12.8582376,11.4645012 L13.6344752,13.1320651 C13.3212079,13.465299 12.8610099,13.7999272 12.2511089,14.1401325 C11.6398218,14.4817321 10.9398218,14.7647718 10.152495,14.9934344 C9.36378218,15.222097 8.57229703,15.3378226 7.77942574,15.3378226 C6.1229901,15.3378226 4.74932673,15.0199258 3.66259406,14.3841322 C2.57586139,13.7497329 1.77605941,12.8615739 1.26318812,11.7252324 C0.75170297,10.5861022 0.495267327,9.25316662 0.495267327,7.7264255 C0.495267327,6.13694159 0.804376238,4.76357173 1.4239802,3.60352733 L1.4239802,3.60352733 Z" id="Fill-26" fill="#0B71B9" mask="url(#mask-2)"></path>
                        </g>
                        <path d="M183.912238,67.88142 L184.592832,69.8724577 C184.727288,70.0857832 185.032238,70.2795887 185.507684,70.4538742 C185.985901,70.6281597 186.477981,70.7146053 186.986693,70.7146053 C187.760159,70.7146053 188.331248,70.5584455 188.697189,70.2447315 C189.061743,69.9338062 189.244713,69.5294638 189.244713,69.0317044 C189.244713,68.6650076 189.104713,68.333168 188.823327,68.0431569 C188.543327,67.7517515 188.173228,67.4882318 187.714416,67.2539921 C187.255604,67.0183581 186.584713,66.7074327 185.703129,66.321216 L185.007288,66.0130792 C183.761149,65.481857 182.836594,64.8544291 182.233624,64.1321899 C181.63204,63.4085565 181.332634,62.4897232 181.332634,61.3756902 C181.332634,60.5711883 181.576594,59.8517377 182.067288,59.2173384 C182.556594,58.5843334 183.257981,58.0865739 184.171446,57.7212715 C185.086297,57.3573633 186.161941,57.1747121 187.401149,57.1747121 C188.246693,57.1747121 188.971644,57.2290892 189.578773,57.3378434 C190.184515,57.4452032 190.85402,57.5929974 191.583129,57.7812257 C191.975406,57.8969513 192.287288,57.9736369 192.520159,58.0098883 L192.520159,61.5402157 L190.113822,61.5402157 L189.419367,59.6649036 C189.319565,59.4780695 189.099169,59.3121497 188.756792,59.1671441 C188.41303,59.0221386 188.005505,58.9510301 187.532832,58.9510301 C186.821743,58.9510301 186.272832,59.0960357 185.890258,59.387441 C185.506297,59.6774521 185.31501,60.059486 185.31501,60.530754 C185.31501,60.9253364 185.438377,61.2613589 185.682337,61.5388214 C185.927684,61.816284 186.235406,62.051918 186.604119,62.2457235 C186.974218,62.4381347 187.498179,62.6765573 188.174614,62.9582027 L188.803921,63.214751 C189.774218,63.6260648 190.582337,64.0262243 191.222733,64.4166239 C191.864515,64.8056292 192.396792,65.3006 192.820951,65.9001422 C193.242337,66.4996844 193.455802,67.2233178 193.455802,68.0710426 C193.455802,68.9104016 193.228476,69.6633151 192.773822,70.3325714 C192.317783,70.9990393 191.621941,71.5288672 190.682139,71.9192668 C189.740951,72.3082721 188.580753,72.5020776 187.200159,72.5020776 C186.238179,72.5020776 185.362139,72.4198148 184.573426,72.253895 C183.784713,72.0893695 182.954416,71.8704668 182.081149,71.6027643 C181.902337,71.5400215 181.65699,71.4675187 181.345109,71.3880445 L181.345109,67.88142 L183.912238,67.88142 Z" id="Fill-29" fill="#0B71B9"></path>
                        <path d="M196.83008,51.152799 C197.03107,50.7498509 197.323545,50.4277712 197.71305,50.1921372 C198.099783,49.9537146 198.561367,49.8352005 199.09503,49.8352005 L199.108891,49.8352005 C199.617604,49.8352005 200.05008,49.9383775 200.411862,50.1433373 C200.773644,50.3510856 201.049486,50.622971 201.240773,50.9645706 C201.43206,51.3047759 201.529089,51.6812327 201.529089,52.0939408 C201.529089,52.8649799 201.296218,53.4951963 200.833248,53.9818015 C200.370278,54.4711952 199.704931,54.7151949 198.841367,54.7151949 L198.827505,54.7151949 C198.382555,54.7151949 197.986119,54.6162007 197.638198,54.4196067 C197.290278,54.2230126 197.019981,53.9567044 196.823149,53.6206819 C196.627703,53.2832651 196.529288,52.9054141 196.529288,52.482946 C196.529288,51.9991294 196.629089,51.5557471 196.83008,51.152799 L196.83008,51.152799 Z M197.183545,70.4190171 L197.183545,60.0929488 L195.378792,59.5422066 L195.378792,57.4856375 L200.646119,56.8135925 L200.712654,56.8135925 L201.540179,57.4033747 L201.540179,70.4315656 L203.25206,70.6881139 L203.25206,72.489529 L195.392654,72.489529 L195.392654,70.6881139 L197.183545,70.4190171 Z" id="Fill-31" fill="#0B71B9"></path>
                        <g id="Group-35" transform="translate(204.050476, 50.194229)">
                            <mask id="mask-4" fill="white">
                                <use xlink:href="#path-3"></use>
                            </mask>
                            <g id="Clip-34"></g>
                            <path d="M10.7235842,9.44683269 C10.6071485,9.28370144 10.3756634,9.14148446 10.0277426,9.02575888 C9.67982178,8.90863901 9.29724752,8.85007908 8.87863366,8.85007908 C7.85427723,8.85007908 7.03229703,9.31576998 6.41269307,10.2443632 C5.79308911,11.1743507 5.4839802,12.6787833 5.4839802,14.7590552 C5.4839802,16.4586876 5.75011881,17.7246976 6.28516832,18.5584795 C6.82021782,19.3922614 7.53685149,19.8091523 8.43784158,19.8091523 C8.93685149,19.8091523 9.38180198,19.7129467 9.77407921,19.5247184 C10.1663564,19.3350957 10.482396,19.1064331 10.7235842,18.8373363 L10.7235842,9.44683269 Z M1.81348515,10.9847281 C2.44279208,9.76612375 3.37150495,8.79430771 4.6010099,8.06927997 C5.83190099,7.34425222 7.30536634,6.98034406 9.02556436,6.98034406 C9.55091089,6.98034406 10.1178416,7.04448113 10.7235842,7.1699667 L10.7235842,2.74590316 L8.1439802,2.39593785 L8.1439802,0.675391232 L14.0503168,0.0981576027 L14.1584356,0.0981576027 L14.9998218,0.729768313 L14.9998218,20.0907977 L16.4303168,20.0907977 L16.4303168,21.8643271 C15.0303168,22.1613097 13.8812079,22.3091038 12.981604,22.3091038 C12.5449703,22.3091038 12.2012079,22.2686695 11.9530891,22.1878011 C11.7035842,22.1069326 11.5136832,21.9549556 11.3847723,21.7318701 C11.2558614,21.5059961 11.1907129,21.1839165 11.1907129,20.7628427 L11.1907129,20.1702719 C10.7180396,20.7976998 10.0901188,21.3107963 9.3069505,21.7095616 C8.52239604,22.1097211 7.68932673,22.3091038 6.80635644,22.3091038 C5.67388119,22.3091038 4.66338614,22.0469784 3.77209901,21.5241218 C2.88219802,20.999871 2.17526733,20.1939748 1.65407921,19.1050388 C1.13289109,18.0161029 0.87229703,16.6552816 0.87229703,15.0253635 C0.87229703,13.5488166 1.18556436,12.2033324 1.81348515,10.9847281 L1.81348515,10.9847281 Z" id="Fill-33" fill="#0B71B9" mask="url(#mask-4)"></path>
                        </g>
                        <g id="Group-38" transform="translate(222.070278, 57.165649)">
                            <mask id="mask-6" fill="white">
                                <use xlink:href="#path-5"></use>
                            </mask>
                            <g id="Clip-37"></g>
                            <path d="M9.10332673,5.89851901 L9.11718812,4.93367439 C9.11718812,3.97301262 8.95778218,3.22985918 8.63619802,2.70003122 C8.316,2.17020325 7.77124752,1.90668355 7.00471287,1.90668355 C6.49738614,1.90668355 6.06491089,2.01822628 5.70867327,2.23991745 C5.35243564,2.46160863 5.06689109,2.86595103 4.85342574,3.45433893 C4.63857426,4.04133255 4.5179802,4.85559448 4.4930297,5.89851901 L9.10332673,5.89851901 Z M0.956990099,3.60352733 C1.57520792,2.44348294 2.44708911,1.55671823 3.56986139,0.937656077 C4.69263366,0.319988208 5.99421782,0.00906284684 7.47322772,0.00906284684 C9.35283168,0.00906284684 10.7944158,0.451050916 11.7965941,1.33363277 C12.7987723,2.21482034 13.3227327,3.48222461 13.3670891,5.13026845 C13.3670891,6.27637001 13.3005545,7.14779759 13.1674851,7.74036834 L4.53184158,7.74036834 C4.63857426,9.38980647 5.04194059,10.6139879 5.74194059,11.4115185 C6.44194059,12.209049 7.37065347,12.6078142 8.52946535,12.6078142 C9.19619802,12.6078142 9.89342574,12.4920887 10.6211485,12.2592432 C11.346099,12.0263978 11.9379802,11.7614838 12.3912475,11.4645012 L13.1674851,13.1320651 C12.8542178,13.465299 12.3940198,13.7999272 11.7841188,14.1401325 C11.1728317,14.4817321 10.4728317,14.7647718 9.68550495,14.9934344 C8.89679208,15.222097 8.10530693,15.3378226 7.31243564,15.3378226 C5.656,15.3378226 4.28233663,15.0199258 3.19560396,14.3841322 C2.10887129,13.7497329 1.30906931,12.8615739 0.79619802,11.7252324 C0.284712871,10.5861022 0.0282772277,9.25316662 0.0282772277,7.7264255 C0.0282772277,6.13694159 0.337386139,4.76357173 0.956990099,3.60352733 L0.956990099,3.60352733 Z" id="Fill-36" fill="#0B71B9" mask="url(#mask-6)"></path>
                        </g>
                        <path d="M239.233169,70.5093667 L239.233169,60.4816752 L237.589208,59.960213 L237.589208,57.7405126 L242.414357,57.1214505 L242.482278,57.1214505 L243.216931,57.7126269 L243.216931,58.694203 L243.189208,59.3132651 C243.822674,58.7220887 244.632179,58.2187521 245.614951,57.8018611 C246.600495,57.3849702 247.605446,57.1758276 248.629802,57.1758276 C249.734555,57.1758276 250.606436,57.3710273 251.242674,57.7628212 C251.880297,58.1560093 252.339109,58.7820429 252.619109,59.6451047 C252.900495,60.5067723 253.040495,61.677971 253.040495,63.1573065 L253.040495,70.4828753 L254.644258,70.717115 L254.644258,72.4892501 L247.213169,72.4892501 L247.213169,70.7436064 L248.617327,70.4968181 L248.617327,63.1879807 C248.617327,62.320736 248.559109,61.6445082 248.44406,61.1565087 C248.327624,60.6699036 248.116931,60.3143611 247.814753,60.0843042 C247.512575,59.8570359 247.074555,59.7427046 246.504852,59.7427046 C245.987822,59.7427046 245.473565,59.8598245 244.960693,60.09267 C244.449208,60.3241211 244.009802,60.5974008 243.645248,60.9097204 L243.645248,70.4968181 L245.194951,70.7436064 L245.194951,72.4892501 L237.683466,72.4892501 L237.683466,70.7436064 L239.233169,70.5093667 Z" id="Fill-39" fill="#0B71B9"></path>
                        <g id="Group-43" transform="translate(255.337604, 52.691454)">
                            <mask id="mask-8" fill="white">
                                <use xlink:href="#path-7"></use>
                            </mask>
                            <g id="Clip-42"></g>
                            <path d="M0.59160396,6.76988416 L0.59160396,5.19713166 C0.805069307,5.11347461 1.10724752,4.98101762 1.49952475,4.80115497 C1.89180198,4.6226866 2.11081188,4.51393244 2.15516832,4.47628676 C2.49338614,4.12771573 2.77893069,3.67039054 3.01041584,3.10570547 C3.16982178,2.73761446 3.34447525,2.27610641 3.53160396,1.72118133 C3.71873267,1.16486196 3.8739802,0.661525388 4.00011881,0.208383047 L6.47160396,0.208383047 L6.59219802,4.49720103 L10.6036832,4.49720103 L10.6036832,6.76988416 L6.61992079,6.76988416 L6.61992079,13.923956 C6.61992079,14.9626977 6.64348515,15.680754 6.692,16.0767307 C6.74190099,16.4713131 6.85140594,16.7292557 7.02051485,16.8491641 C7.18962376,16.966284 7.4890297,17.0262382 7.9159604,17.0262382 L7.92982178,17.0262382 C8.68665347,17.0262382 9.51972277,16.8965698 10.4290297,16.6358387 L10.441505,16.6358387 L11.0167525,18.2880653 C10.6965545,18.5474022 10.2571485,18.7941905 9.69992079,19.0242474 C9.14407921,19.25291 8.52447525,19.4425326 7.84110891,19.5903267 C7.16051485,19.7381208 6.49932673,19.8120179 5.85754455,19.8120179 L5.82982178,19.8120179 C4.61833663,19.8120179 3.71734653,19.5401325 3.12407921,18.9991502 C2.53081188,18.4595623 2.23556436,17.6202032 2.23556436,16.485256 L2.23556436,6.76988416 L0.59160396,6.76988416 Z" id="Fill-41" fill="#0B71B9" mask="url(#mask-8)"></path>
                        </g>
                        <path d="M268.707604,68.9598987 C268.957109,68.5806534 269.288396,68.2836709 269.702852,68.073134 C270.117307,67.8625971 270.569189,67.7580258 271.058495,67.7580258 C271.558891,67.7580258 271.988594,67.8598085 272.34899,68.0661626 C272.710773,68.2725166 272.986614,68.5485849 273.179288,68.8929731 C273.369189,69.2373613 273.466218,69.6082408 273.466218,70.0028233 C273.466218,70.7738624 273.202852,71.3817703 272.676119,71.8307297 C272.150773,72.2796892 271.474337,72.5027747 270.64404,72.5027747 C270.253149,72.5027747 269.878891,72.4065691 269.522654,72.2141579 C269.166416,72.0203524 268.878099,71.7554384 268.660476,71.4138388 C268.442852,71.0736335 268.331961,70.6832339 268.331961,70.2440344 C268.331961,69.7685835 268.456713,69.3405383 268.707604,68.9598987" id="Fill-44" fill="#0B71B9"></path>
                        <polygon id="Fill-46" fill="#0B71B9" points="165.850436 39.738492 165.850436 27.6430771 154.520139 7.67274556 151.314 6.89194645 151.314 3.10367647 168.362119 3.10367647 168.362119 6.89194645 164.755387 7.67274556 171.141327 20.600548 172.370832 24.0695269 173.733406 20.6549251 179.585684 7.64485988 175.496575 6.89194645 175.496575 3.10367647 189.312218 3.10367647 189.312218 6.89194645 185.918951 7.59187708 175.389842 27.6430771 175.389842 39.7120006 181.18806 40.4105369 181.18806 44.0119728 160.265684 44.0119728 160.265684 40.4105369"></polygon>
                        <path d="M201.979446,36.137056 C203.45707,38.91447 205.559842,40.303177 208.286377,40.303177 C210.085585,40.303177 211.621426,39.6520463 212.895288,38.349785 C214.169149,37.0475236 215.147763,35.0997087 215.833901,32.5049459 C216.52004,29.9073946 216.862416,26.7172725 216.862416,22.9317911 C216.862416,17.4104259 216.127763,13.3391163 214.658456,10.7192564 C213.189149,8.09660794 211.073901,6.78458657 208.311327,6.78458657 C205.568159,6.78458657 203.45707,8.18305355 201.979446,10.9785932 C200.500436,13.7741329 199.760238,17.9834767 199.760238,23.6108074 C199.760238,29.1837611 200.500436,33.3596421 201.979446,36.137056 M192.172515,12.7939512 C193.740238,9.68469756 195.944198,7.28931743 198.785783,5.60362791 C201.627367,3.91933269 204.91806,3.07579079 208.659248,3.07579079 C214.805387,3.07579079 219.365783,4.81028024 222.340436,8.27925916 C225.316476,11.7468438 226.803802,16.6170782 226.803802,22.8899625 C226.803802,27.0825749 226.010931,30.7774279 224.425189,33.9759156 C222.839446,37.1730092 220.607763,39.6506521 217.731525,41.4060558 C214.853901,43.1614595 211.528555,44.0398585 207.751327,44.0398585 C203.688555,44.0398585 200.327169,43.1963166 197.664396,41.5120214 C195.000238,39.8263319 193.027763,37.4658088 191.744198,34.4276637 C190.46202,31.3895186 189.821624,27.8006312 189.821624,23.6623959 C189.821624,19.5241607 190.604792,15.9004162 192.172515,12.7939512" id="Fill-48" fill="#0B71B9"></path>
                        <path d="M232.548931,7.78428829 L229.073882,7.01603774 L229.073882,3.10367647 L246.443585,3.10367647 L246.443585,7.01603774 L241.927545,7.81077969 L241.927545,27.8131798 C241.927545,32.029495 242.64002,35.1512972 244.066357,37.1799806 C245.489921,39.208664 247.646753,40.2237028 250.532693,40.2237028 C253.381208,40.2237028 255.493684,39.1473155 256.865961,36.9945408 C258.236852,34.8431604 258.92299,31.8259295 258.92299,27.9456368 L258.92299,7.78428829 L254.326555,7.01603774 L254.326555,3.10367647 L268.327941,3.10367647 L268.327941,7.01603774 L264.721208,7.78428829 L264.721208,27.5287458 C264.721208,31.3449015 264.066951,34.4848294 262.75705,36.9499237 C261.448535,39.4164123 259.645169,41.2136446 257.346951,42.3430147 C255.047347,43.4751734 252.366555,44.0398585 249.303189,44.0398585 C245.471901,44.0398585 242.329525,43.4570477 239.869129,42.2900319 C237.411505,41.1244104 235.577644,39.2965039 234.366159,36.8035239 C233.154674,34.3133324 232.548931,31.0716218 232.548931,27.0783921 L232.548931,7.78428829 Z" id="Fill-50" fill="#0B71B9"></path>
                        <path d="M274.223743,40.3157256 C274.564733,40.5834281 274.828099,40.9668563 275.01107,41.4674043 C275.19404,41.9679523 275.286911,42.5591287 275.286911,43.2451165 C275.286911,44.1974126 275.117802,45.1232173 274.775426,46.0211362 C274.435822,46.9176609 274.011664,47.6887001 273.501565,48.3300708 C272.992852,48.9714415 272.503545,49.4078524 272.033644,49.636515 L271.99899,49.636515 L270.906713,48.7971559 L270.906713,48.4193049 C271.368297,48.0721282 271.746713,47.6329287 272.040575,47.1017064 C272.334436,46.5690899 272.479981,45.9500277 272.479981,45.2417314 C272.479981,44.9112861 272.414832,44.6435835 272.287307,44.4386238 C272.15701,44.233664 271.954634,43.9938471 271.681565,43.7163846 C271.484733,43.5211848 271.330872,43.3538707 271.217208,43.2158366 C271.104931,43.0778024 271.006515,42.9035169 270.924733,42.6957686 C270.842951,42.4880203 270.799981,42.2454148 270.799981,41.9693466 C270.799981,41.5608213 270.891466,41.1997017 271.071664,40.8887764 C271.250476,40.5764567 271.495822,40.3380341 271.804931,40.1679315 C272.115426,39.9978288 272.457802,39.9141718 272.83206,39.9141718 L273.03305,39.9141718 C273.486317,39.9141718 273.884139,40.048023 274.223743,40.3157256" id="Fill-52" fill="#0B71B9"></path>
                        <g id="Group-56" transform="translate(92.871287, 0.000000)">
                            <mask id="mask-10" fill="white">
                                <use xlink:href="#path-9"></use>
                            </mask>
                            <g id="Clip-55"></g>
                            <path d="M50.1635845,5.0024126 L50.1635845,5.0024126 C44.1435845,-1.05296337 34.3823964,-1.05296337 28.3623964,5.0024126 L27.4835845,5.88499445 L26.6047727,5.00101831 C20.5847727,-1.05575194 10.8221984,-1.05575194 4.80219841,5.00101831 C-1.21780159,11.0563943 -1.21918773,20.8749431 4.80081227,26.9317134 L5.74754494,27.7459753 L5.71566375,27.7794381 L16.2475449,36.7893022 L27.4447727,46.4349598 L27.4835845,46.4028912 L27.518238,46.4321712 L38.758436,36.7544451 L49.2473469,27.7794381 L49.2168519,27.7487639 L50.1635845,26.9345019 C56.1849707,20.8777317 56.1849707,11.0591829 50.1635845,5.0024126" id="Fill-54" fill="#0B71B9" mask="url(#mask-10)"></path>
                        </g>
                    </g>
                </g>
            </g>
        </g>
    </g>
</svg>