<?xml version="1.0" encoding="UTF-8" standalone="no"?>
<svg width="29px" height="25px" viewBox="0 0 29 25" version="1.1" xmlns="http://www.w3.org/2000/svg" xmlns:xlink="http://www.w3.org/1999/xlink">
    <!-- Generator: Sketch 42 (36781) - http://www.bohemiancoding.com/sketch -->
    <title>icon6b</title>
    <desc>Created with Sketch.</desc>
    <defs></defs>
    <g id="Page-1" stroke="none" stroke-width="1" fill="none" fill-rule="evenodd">
        <g id="icon6b" fill="#0B71B9">
            <path d="M26.3748585,2.36289763 L19.0381473,5.28952615 L19.0381473,22.417726 L26.3748585,19.4910974 L26.3748585,2.36289763 Z M10.4067222,19.3150164 L18.1750048,22.417726 L18.1750048,5.28952615 L10.4067222,2.18796742 L10.4067222,19.3150164 Z M2.20686848,22.2416449 L9.54357975,19.3150164 L9.54357975,2.18796742 L2.20686848,5.11459593 L2.20686848,22.2416449 Z M28.1011435,1.08199416 L28.1011435,20.0711292 C28.1011435,20.4209896 27.8847825,20.7455312 27.5613918,20.8663712 L18.9299667,24.3189412 C18.7147565,24.4133114 18.4983955,24.4133114 18.2831853,24.3189412 L9.975151,21.0010214 L1.6671167,24.3189412 C1.56008703,24.3730314 1.4519065,24.3868417 1.34372598,24.3868417 C1.16879576,24.3868417 1.00652497,24.3327515 0.858064461,24.2383812 C0.629043984,24.0761104 0.480583474,23.80681 0.480583474,23.5236992 L0.480583474,4.53456417 C0.480583474,4.18355289 0.696944528,3.86016216 1.02033525,3.73817135 L9.65176027,0.285601346 C9.86697047,0.191231099 10.0833315,0.191231099 10.2985417,0.285601346 L18.606576,3.60352112 L26.9146103,0.285601346 C27.1839108,0.178571675 27.4808318,0.205041379 27.7236626,0.367312169 C27.952683,0.528432103 28.1011435,0.79888342 28.1011435,1.08199416 L28.1011435,1.08199416 Z" id="Fill-22"></path>
        </g>
    </g>
</svg>