<?xml version="1.0" encoding="UTF-8" standalone="no"?>
<svg width="23px" height="22px" viewBox="0 0 23 22" version="1.1" xmlns="http://www.w3.org/2000/svg" xmlns:xlink="http://www.w3.org/1999/xlink">
    <!-- Generator: Sketch 42 (36781) - http://www.bohemiancoding.com/sketch -->
    <title>icon4b</title>
    <desc>Created with Sketch.</desc>
    <defs></defs>
    <g id="Page-1" stroke="none" stroke-width="1" fill="none" fill-rule="evenodd">
        <g id="icon4b" fill="#0B71B9">
            <path d="M21.6376685,19.5052736 C21.3131269,20.2625373 20.4465318,20.7585565 19.7502636,21.1452444 C18.8376342,21.6389619 17.9100437,21.9335812 16.871971,21.9335812 C15.4334002,21.9335812 14.134083,21.3466443 12.8198047,20.8667371 C11.8761022,20.5260835 10.9634729,20.1083225 10.1118389,19.582381 C7.48213146,17.9573714 4.31037048,14.7856104 2.68536086,12.1559029 C2.15941936,11.3054199 1.74280925,10.3927905 1.40215567,9.44908805 C0.922248443,8.13365887 0.334160685,6.83434169 0.334160685,5.39577086 C0.334160685,4.358849 0.628779992,3.43010766 1.12364836,2.51747832 C1.5103362,1.8223609 2.00520457,0.955765824 2.76361911,0.631224243 C3.27344862,0.39760034 4.35640475,0.151317012 4.91457023,0.151317012 C5.0215999,0.151317012 5.12978043,0.151317012 5.23911181,0.197351279 C5.56365339,0.305531806 5.90430697,1.06394635 6.05852176,1.37237594 C6.55454098,2.255083 7.03444822,3.15275121 7.54427772,4.01819542 C7.7917119,4.42099526 8.25550714,4.91586362 8.25550714,5.39577086 C8.25550714,6.33947332 5.45432201,7.7158979 5.45432201,8.55141984 C5.45432201,8.96918081 5.84216071,9.51008345 6.05852176,9.88296101 C7.62138512,12.6979564 9.57093631,14.6463568 12.3859317,16.210371 C12.7576584,16.4255812 13.2997119,16.8134199 13.716322,16.8134199 C14.5529948,16.8134199 15.9294194,14.0133856 16.871971,14.0133856 C17.3518783,14.0133856 17.8478975,14.4771808 18.2506973,14.724615 C19.1161415,15.2344445 20.0138097,15.7143518 20.8953659,16.210371 C21.2049464,16.3645858 21.9622101,16.7040885 22.0715415,17.0297809 C22.1175757,17.1379615 22.1175757,17.246142 22.1175757,17.3543225 C22.1175757,17.9113371 21.8701415,18.9954441 21.6376685,19.5052736" id="Fill-14"></path>
        </g>
    </g>
</svg>