<?xml version="1.0" encoding="UTF-8" standalone="no"?>
<svg width="23px" height="22px" viewBox="0 0 23 22" version="1.1" xmlns="http://www.w3.org/2000/svg" xmlns:xlink="http://www.w3.org/1999/xlink">
    <!-- Generator: Sketch 42 (36781) - http://www.bohemiancoding.com/sketch -->
    <title>icon4a</title>
    <desc>Created with Sketch.</desc>
    <defs></defs>
    <g id="Page-1" stroke="none" stroke-width="1" fill="none" fill-rule="evenodd">
        <g id="icon4a" fill="#DCE3ED">
            <path d="M21.6376685,19.5051585 C21.3131269,20.2624222 20.4465318,20.7584415 19.7502636,21.1451293 C18.8376342,21.6388468 17.9100437,21.9334661 16.871971,21.9334661 C15.4334002,21.9334661 14.134083,21.3465292 12.8198047,20.866622 C11.8761022,20.5259684 10.9634729,20.1082074 10.1118389,19.5822659 C7.48213146,17.9572563 4.31037048,14.7854953 2.68536086,12.1557878 C2.15941936,11.3053048 1.74280925,10.3926754 1.40215567,9.44897296 C0.922248443,8.13354379 0.334160685,6.83422661 0.334160685,5.39565577 C0.334160685,4.35873391 0.628779992,3.42999258 1.12364836,2.51736324 C1.5103362,1.82224581 2.00520457,0.955650739 2.76361911,0.631109158 C3.27344862,0.397485254 4.35640475,0.151201927 4.91457023,0.151201927 C5.0215999,0.151201927 5.12978043,0.151201927 5.23911181,0.197236193 C5.56365339,0.30541672 5.90430697,1.06383127 6.05852176,1.37226085 C6.55454098,2.25496792 7.03444822,3.15263612 7.54427772,4.01808034 C7.7917119,4.42088017 8.25550714,4.91574854 8.25550714,5.39565577 C8.25550714,6.33935824 5.45432201,7.71578282 5.45432201,8.55130476 C5.45432201,8.96906573 5.84216071,9.50996836 6.05852176,9.88284592 C7.62138512,12.6978413 9.57093631,14.6462417 12.3859317,16.2102559 C12.7576584,16.4254661 13.2997119,16.8133048 13.716322,16.8133048 C14.5529948,16.8133048 15.9294194,14.0132705 16.871971,14.0132705 C17.3518783,14.0132705 17.8478975,14.4770657 18.2506973,14.7244999 C19.1161415,15.2343294 20.0138097,15.7142367 20.8953659,16.2102559 C21.2049464,16.3644707 21.9622101,16.7039734 22.0715415,17.0296658 C22.1175757,17.1378464 22.1175757,17.2460269 22.1175757,17.3542074 C22.1175757,17.9112221 21.8701415,18.995329 21.6376685,19.5051585" id="Fill-8"></path>
        </g>
    </g>
</svg>