<?xml version="1.0" encoding="UTF-8" standalone="no"?>
<svg width="19px" height="22px" viewBox="0 0 19 22" version="1.1" xmlns="http://www.w3.org/2000/svg" xmlns:xlink="http://www.w3.org/1999/xlink">
    <!-- Generator: Sketch 42 (36781) - http://www.bohemiancoding.com/sketch -->
    <title>icon2c</title>
    <desc>Created with Sketch.</desc>
    <defs>
        <polygon id="path-1" points="18.6436479 0.726190558 0.820330634 0.726190558 0.820330634 22.5089151 18.6436479 22.5089151 18.6436479 0.726190558"></polygon>
    </defs>
    <g id="Page-1" stroke="none" stroke-width="1" fill="none" fill-rule="evenodd">
        <g id="icon2c" transform="translate(-1.000000, -1.000000)">
            <g id="Group-7" transform="translate(0.732553, 0.424781)">
                <mask id="mask-2" fill="white">
                    <use xlink:href="#path-1"></use>
                </mask>
                <g id="Clip-6"></g>
                <path d="M13.6926625,10.6274708 L13.6926625,7.65710977 C13.6926625,5.47508552 11.9134381,3.69701197 9.73256468,3.69701197 C7.55054044,3.69701197 5.77131603,5.47508552 5.77131603,7.65710977 L5.77131603,10.6274708 L13.6926625,10.6274708 Z M18.6436479,21.0231591 C18.6436479,21.8437199 17.9784527,22.5089151 17.1590428,22.5089151 L2.30493574,22.5089151 C1.48667665,22.5089151 0.820330634,21.8437199 0.820330634,21.0231591 L0.820330634,12.1132268 C0.820330634,11.292666 1.48667665,10.6274708 2.30493574,10.6274708 L2.80095496,10.6274708 L2.80095496,7.65710977 C2.80095496,3.85122676 5.92668168,0.725500044 9.73256468,0.725500044 C13.5372968,0.725500044 16.6630235,3.85122676 16.6630235,7.65710977 L16.6630235,10.6274708 L17.1590428,10.6274708 C17.9784527,10.6274708 18.6436479,11.292666 18.6436479,12.1132268 L18.6436479,21.0231591 Z" id="Fill-5" fill="#0B71B9" mask="url(#mask-2)"></path>
            </g>
        </g>
    </g>
</svg>