<?xml version="1.0" encoding="UTF-8" standalone="no"?>
<svg width="26px" height="20px" viewBox="0 0 26 20" version="1.1" xmlns="http://www.w3.org/2000/svg" xmlns:xlink="http://www.w3.org/1999/xlink">
    <!-- Generator: Sketch 42 (36781) - http://www.bohemiancoding.com/sketch -->
    <title>icon5b</title>
    <desc>Created with Sketch.</desc>
    <defs></defs>
    <g id="Page-1" stroke="none" stroke-width="1" fill="none" fill-rule="evenodd">
        <g id="icon5b" fill="#0B71B9">
            <path d="M21.5179594,18.9438445 C21.5179594,19.485898 21.0691253,19.9335812 20.5282227,19.9335812 L14.5875005,19.9335812 L14.5875005,13.9928591 L10.6262519,13.9928591 L10.6262519,19.9335812 L4.68552976,19.9335812 C4.14347627,19.9335812 3.69579302,19.485898 3.69579302,18.9438445 L3.69579302,11.5185172 C3.69579302,11.4874441 3.71075416,11.4552201 3.71075416,11.4252978 L12.6068762,4.09203914 L21.5018474,11.4252978 C21.5179594,11.4552201 21.5179594,11.4874441 21.5179594,11.5185172 L21.5179594,18.9438445 Z M24.0084132,11.5944738 C23.9313058,11.6876932 23.8070133,11.7498394 23.6838717,11.7659514 L23.6378374,11.7659514 C23.5135449,11.7659514 23.4053643,11.7337274 23.3132958,11.65662 L12.6068762,2.7305757 L1.90045662,11.65662 C1.79227609,11.7337274 1.66913443,11.7809125 1.52988077,11.7659514 C1.40558825,11.7498394 1.28244659,11.6876932 1.20533919,11.5944738 L0.245524729,10.4505222 C0.0751979414,10.2491223 0.106271072,9.92458074 0.306520132,9.75425395 L11.4307007,0.487556051 C12.0809347,-0.0544974399 13.1328177,-0.0544974399 13.7819009,0.487556051 L17.5578616,3.64320504 L17.5578616,0.625658852 C17.5578616,0.348302394 17.7742227,0.130790484 18.0515791,0.130790484 L21.023091,0.130790484 C21.3015984,0.130790484 21.5179594,0.348302394 21.5179594,0.625658852 L21.5179594,6.93810768 L24.9060814,9.75425395 C25.1074814,9.92458074 25.1385545,10.2491223 24.9682277,10.4505222 L24.0084132,11.5944738 Z" id="Fill-18"></path>
        </g>
    </g>
</svg>