<?xml version="1.0" encoding="UTF-8" standalone="no"?>
<svg width="25px" height="39px" viewBox="0 0 25 39" version="1.1" xmlns="http://www.w3.org/2000/svg" xmlns:xlink="http://www.w3.org/1999/xlink">
    <!-- Generator: Sketch 42 (36781) - http://www.bohemiancoding.com/sketch -->
    <title>icon1b</title>
    <desc>Created with Sketch.</desc>
    <defs></defs>
    <g id="Page-1" stroke="none" stroke-width="1" fill="none" fill-rule="evenodd">
        <g id="icon1b" fill="#0B71B9">
            <path d="M12.083995,3.67107641 C9.22526706,3.67107641 6.90514002,5.99120346 6.90514002,8.84993142 C6.90514002,11.7086594 9.22526706,14.0287864 12.083995,14.0287864 C14.942723,14.0287864 17.26285,11.7086594 17.26285,8.84993142 C17.26285,5.99120346 14.942723,3.67107641 12.083995,3.67107641 M16.8715588,13.2059239 C15.6850255,14.5006377 13.9725508,15.3235002 12.083995,15.3235002 C10.1954392,15.3235002 8.48296451,14.5006377 7.29643129,13.2059239 C5.0039248,13.5166552 3.97851151,15.7550714 3.62750022,18.2765984 C5.50224574,20.9201162 8.59114504,22.6602115 12.083995,22.6602115 C15.576845,22.6602115 18.6657443,20.9201162 20.5404898,18.2765984 C20.1894786,15.7550714 19.1640653,13.5166552 16.8715588,13.2059239 M12.083995,24.3864965 C5.40787549,24.3864965 0,18.9648107 0,12.3025014 C0,5.62638189 5.40787549,0.218506402 12.083995,0.218506402 C18.7601146,0.218506402 24.1679901,5.62638189 24.1679901,12.3025014 C24.1679901,18.9510004 18.772774,24.3864965 12.083995,24.3864965" id="Fill-1"></path>
            <path d="M12.821,28.248 L13.323,28.751 C13.484,28.911 13.578,29.133 13.578,29.36 C13.578,29.588 13.484,29.81 13.323,29.963 L11.361,31.933 L16.076,31.933 C16.558,31.933 16.86,32.335 16.86,32.79 L16.86,33.648 C16.86,34.103 16.558,34.505 16.076,34.505 L11.361,34.505 L13.323,36.475 C13.484,36.628 13.578,36.85 13.578,37.078 C13.578,37.305 13.484,37.527 13.323,37.68 L12.821,38.183 C12.66,38.343 12.446,38.436 12.218,38.436 C11.99,38.436 11.769,38.343 11.608,38.183 L7.248,33.822 C7.087,33.668 7,33.447 7,33.219 C7,32.992 7.087,32.77 7.248,32.61 L11.608,28.248 C11.769,28.095 11.99,28.001 12.218,28.001 C12.446,28.001 12.66,28.095 12.821,28.248" id="Page-1" transform="translate(11.929995, 33.218000) rotate(-270.000000) translate(-11.929995, -33.218000) "></path>
        </g>
    </g>
</svg>