<?xml version="1.0" encoding="UTF-8" standalone="no"?>
<svg width="28px" height="24px" viewBox="0 0 28 24" version="1.1" xmlns="http://www.w3.org/2000/svg" xmlns:xlink="http://www.w3.org/1999/xlink">
    <!-- Generator: Sketch 42 (36781) - http://www.bohemiancoding.com/sketch -->
    <title>icon7a</title>
    <desc>Created with Sketch.</desc>
    <defs>
        <polygon id="path-1" points="27.9508559 0.404871376 27.9508559 24.1677599 0.227294192 24.1677599 0.227294192 0.404871376 27.9508559 0.404871376"></polygon>
    </defs>
    <g id="Page-1" stroke="none" stroke-width="1" fill="none" fill-rule="evenodd">
        <g id="icon7a" transform="translate(0.000000, -1.000000)">
            <g id="Group-16" transform="translate(0.037611, 0.726495)">
                <mask id="mask-2" fill="white">
                    <use xlink:href="#path-1"></use>
                </mask>
                <g id="Clip-15"></g>
                <path d="M20.0300849,12.2863156 C18.9321676,12.2863156 18.0494606,11.4036086 18.0494606,10.3056913 C18.0494606,9.20777404 18.9321676,8.32621783 20.0300849,8.32621783 C21.1280022,8.32621783 22.0107092,9.20777404 22.0107092,10.3056913 C22.0107092,11.4036086 21.1280022,12.2863156 20.0300849,12.2863156 M14.0893628,12.2863156 C12.9914455,12.2863156 12.1087384,11.4036086 12.1087384,10.3056913 C12.1087384,9.20777404 12.9914455,8.32621783 14.0893628,8.32621783 C15.18728,8.32621783 16.0699871,9.20777404 16.0699871,10.3056913 C16.0699871,11.4036086 15.18728,12.2863156 14.0893628,12.2863156 M8.14864065,12.2863156 C7.05072339,12.2863156 6.16801632,11.4036086 6.16801632,10.3056913 C6.16801632,9.20777404 7.05072339,8.32621783 8.14864065,8.32621783 C9.24655791,8.32621783 10.1281141,9.20777404 10.1281141,10.3056913 C10.1281141,11.4036086 9.24655791,12.2863156 8.14864065,12.2863156 M2.20791852,10.3056913 C2.20791852,12.6108572 3.75466988,14.8078426 6.4315625,16.3246717 L7.7780648,17.0980474 L7.35915297,18.5838033 C7.06453367,19.6817206 6.67784583,20.5322037 6.27619685,21.2434331 C7.8390602,20.5943499 9.26266991,19.7127937 10.530914,18.5976136 L11.1961091,18.0106767 L12.0776653,18.1038961 C12.7428605,18.1810035 13.4241676,18.2270378 14.0893628,18.2270378 C20.5249533,18.2270378 25.970807,14.6075935 25.970807,10.3056913 C25.970807,6.00493993 20.5249533,2.38434485 14.0893628,2.38434485 C7.65377228,2.38434485 2.20791852,6.00493993 2.20791852,10.3056913 M14.0893628,20.2076621 C13.3309482,20.2076621 12.5736845,20.1616278 11.8463431,20.0833696 C9.81968453,21.878706 7.40518724,23.14695 4.72944548,23.8271063 C4.17243086,23.982472 3.5682311,24.0906525 2.96633307,24.1677599 L2.88807481,24.1677599 C2.57849437,24.1677599 2.30113791,23.9203257 2.22287966,23.5796721 L2.22287966,23.564711 C2.14577226,23.1780232 2.40816758,22.946701 2.64064063,22.6681936 C3.61541623,21.5679747 4.72944548,20.6403842 5.4567869,18.0578618 C2.26891392,16.2464134 0.227294192,13.4463792 0.227294192,10.3056913 C0.227294192,4.84487641 6.4315625,0.404871376 14.0893628,0.404871376 C21.7471631,0.404871376 27.9514314,4.84487641 27.9514314,10.3056913 C27.9514314,15.7826182 21.7471631,20.2076621 14.0893628,20.2076621" id="Fill-14" fill="#DCE3ED" mask="url(#mask-2)"></path>
            </g>
        </g>
    </g>
</svg>